<?xml version="1.0" encoding="UTF-8"?><svg id="Layer_2" xmlns="http://www.w3.org/2000/svg" viewBox="0 0 1332 1460.28"><defs><style>.cls-1{stroke-width:150px;}.cls-1,.cls-2{fill:none;stroke:#c00;stroke-linecap:round;stroke-miterlimit:10;}.cls-3{fill:#c00;}.cls-2{stroke-width:64.38px;}</style></defs><rect class="cls-3" x="525" y="533" width="397" height="482" rx="120.69" ry="120.69"/><rect class="cls-3" x="524" y="858.69" width="135" height="580.31" rx="67.5" ry="67.5"/><rect class="cls-3" x="786" y="851.01" width="135" height="580.31" rx="67.5" ry="67.5"/><circle class="cls-3" cx="722" cy="340" r="163"/><line class="cls-1" x1="622.82" y1="609.88" x2="353.53" y2="879.17"/><line class="cls-1" x1="828.53" y1="617.88" x2="1097.82" y2="887.17"/><rect class="cls-3" x="200.13" y="259.81" width="170.4" height="206.89" rx="51.8" ry="51.8"/><rect class="cls-3" x="199.7" y="399.6" width="57.95" height="249.09" rx="28.97" ry="28.97"/><rect class="cls-3" x="312.16" y="396.31" width="57.95" height="249.09" rx="28.97" ry="28.97"/><circle class="cls-3" cx="284.69" cy="176.96" r="69.96"/><line class="cls-2" x1="242.12" y1="292.81" x2="126.53" y2="408.39"/><path class="cls-2" d="m330.41,296.24s72.59,1.76,80.59-33.24c9.4-41.13-36-85-36-85"/></svg>