<?xml version="1.0" encoding="utf-8"?>
<svg viewBox="0 0 500 500" xmlns="http://www.w3.org/2000/svg">
  <path d="M 232.474 184.631 L 281.853 184.631 C 284.039 184.634 286.185 184.819 288.276 185.172 C 288.4 185.144 288.524 185.118 288.648 185.092 C 288.648 185.092 291.331 184.852 288.648 185.092 C 288.648 185.092 304.685 184.879 316.216 182.509 C 322.137 181.292 325.513 180.25 328.968 178.178 C 330.057 177.524 330.099 177.557 330.211 177.417 C 331.139 174.413 330.353 172.612 328.971 167.949 C 327.426 162.742 325.388 158.777 322.193 153.719 C 316.177 144.194 309.865 138.108 309.865 138.108 C 309.683 137.933 309.506 137.756 309.332 137.577 C 307.082 147.184 302.174 155.785 295.446 162.513 C 286.041 171.918 272.973 177.768 258.617 177.768 C 244.261 177.768 231.193 171.918 221.788 162.513 C 219.809 160.534 217.987 158.393 216.344 156.111 C 209.232 147.253 204.976 136.002 204.976 123.758 C 204.976 95.196 228.129 72.043 256.691 72.043 C 268.936 72.043 280.545 71.279 290.837 81.619 C 299.214 84.695 309.567 104.13 311.081 102.67 C 322.185 91.956 333.484 94.754 342.933 103.886 C 342.933 103.886 353.401 114.013 362.428 128.304 C 366.754 135.154 371.802 144.996 374.597 154.42 C 377.391 163.843 378.181 177.662 376.207 189.131 C 374.387 195.275 370.642 203.213 367.034 207.543 C 363.489 211.799 357.762 216.4 353.447 218.988 C 345.178 223.949 334.03 227.432 325.797 229.124 C 324.426 229.406 323.095 229.659 321.807 229.886 C 321.898 237.225 321.812 244.404 321.816 246.738 L 320.513 299.643 C 320.511 301.547 320.37 303.421 320.101 305.254 C 320.167 305.933 320.201 306.621 320.203 307.316 L 320.203 448.615 C 320.187 454.604 317.744 460.097 313.822 464.018 C 309.901 467.94 304.408 470.383 298.419 470.399 L 298.411 470.399 C 292.422 470.383 286.929 467.94 283.008 464.018 C 279.086 460.097 276.643 454.604 276.627 448.615 L 276.627 338.304 L 237.072 338.304 L 237.072 451.047 C 237.056 457.036 234.614 462.529 230.692 466.45 C 226.77 470.372 221.277 472.815 215.288 472.831 L 215.281 472.831 C 209.292 472.815 203.799 470.372 199.877 466.45 C 195.955 462.529 193.513 457.036 193.496 451.047 L 193.496 309.748 C 193.502 307.965 193.721 306.225 194.131 304.558 C 193.925 302.948 193.816 301.307 193.814 299.643 L 193.814 274.45 L 156.604 311.658 C 147.31 320.949 132.245 320.949 122.952 311.656 C 113.66 302.363 113.661 287.297 122.954 278.005 L 208.398 192.568 C 212.65 188.317 218.11 186.01 223.674 185.65 C 226.505 184.988 229.452 184.635 232.474 184.631 Z M 256.691 175.472 C 245.425 175.472 307.655 135.682 307.175 135.025 C 302.032 158.167 281.382 175.472 256.691 175.472 Z" class="cls-3" style="fill: rgb(204, 0, 0);"/>
</svg>