<?xml version="1.0" encoding="UTF-8"?><svg id="Layer_2" xmlns="http://www.w3.org/2000/svg" viewBox="0 0 1366 1044.08"><defs><style>.cls-1{fill:#fff;}.cls-2{fill:#c00;}.cls-3{fill:#4a4944;}.cls-4{fill:#822757;}</style></defs><path class="cls-4" d="m749.59,492.69c-5.08-8.36-8.81-17.4-12.94-26.24-4.73-10.1-7.42-20.86-10.74-31.42-1.16-3.7-3.01-7.17-3.8-11-1.37-6.71-3.9-12.9-7.87-18.51-3.2-4.53-6.48-8.99-8.91-14.03-1.17-2.44-.65-3.62,1.61-4.61,3.72-1.62,7.69-2.59,11.11-5.05,3.01-2.17,3.32-2.46,1.2-5.68-5.9-8.99-10.83-18.55-16.82-27.5-5.23-7.81-7.98-16.96-12.25-25.34-3.81-7.46-7.65-14.64-14.5-19.91-4.54-3.49-9.94-4.18-15.07-5.83-1.35-.44-3.14-.3-3.83-1.71-1.72-3.53-4.4-3.06-7.35-2.2-4.55,1.33-9.16,1.87-13.75.34-1.82-.61-3.48-1.19-5.48-.68-1.64.43-2.69-.4-2.92-2.26-.39-3.02-1.75-5.42-4.7-6.76-1.78-.81-2.08-2.42-1.88-4.22.78-7.15,2.85-13.79,6.66-19.99,2.39-3.91,1.87-8.36-.03-12.39-2.06-4.33-6.76-5.04-10.61-6.72-2.55-1.11-3.47-2.06-2.12-4.89,1.6-3.34.38-4.94-3.48-4.92-3.84.03-7.21-1.53-10.13-3.53-11.46-7.87-24.42-4.6-34.17,1.9-.27.18-.46.48-.67.74-6.1,7.35-10.09,15.88-13.34,24.74-2.04,5.56-1.02,10.67,3.72,14.76,1.33,1.13,2.43,2.62,3.33,4.13,4.46,7.45,8.99,14.77,16.61,19.59,1.96,1.24,2.4,6.04.85,6.77-5.52,2.61-9.53,6.75-12.84,11.74-.59.88-1.65,1.65-2.2.06-1.07-3.12-3.45-2.7-5.75-2.3-2.29.4-4.52,1.13-6.79,1.64-7.48,1.67-8.44,2.8-7.79,10.35.16,1.95-.46,3.03-1.88,4.19-3.08,2.48-4.82,5.72-4.89,9.78-.04,2.24-.68,4.36-1.5,6.44-.68,1.75-1.47,3.56-1.62,5.39-.75,9.1-4.15,17.61-5.65,26.59-1.31,7.85-5.05,15.3-7.77,22.9-1.76,4.91-1.98,9.46,2.53,13.13.54.44.86.96.84,1.71-.08,2.65.2,5.37-.24,7.96-2.06,12.33-1.29,24.74-1.33,37.13-.01,1.77,1.05,3.36.53,5.19-1.51,5.33-2.06,10.91-2.08,16.31-.06,12.59,2.74,25.04,2.16,37.74-.2,4.42,1.31,9.02,2.28,13.36,1.39,6.27,6.41,10.61,12.88,12.06,2.52.56,5.17.71,7.73,1.47,2.14.64,3.46-1.05,2.54-3.1-.68-1.51-1.73-2.81-2.89-4.04-4.45-4.74-5.55-12.21-2.66-17.76.53-1.02.76-2.74,2.2-2.58,1.39.16,1.81,1.81,2.38,2.98.27.57.15,1.32.33,1.95.61,2.23,1.06,4.56,2.78,6.29.9.91,1.94,1.52,3.27.78,1.16-.65,1.14-1.63,1.1-2.84-.14-4.58-1.51-8.93-2.39-13.36-.9-4.48-.99-9.57-5.86-12.26-.26-.14-.31-.79-.33-1.21-.2-6.76,1.19-13.36,1.89-20.41,2.7,2.38,4.24,5.68,7.41,6.2,4.65.75,8.85,2.89,13.4,3.77,3.09.6,4.18,1.95,4.1,5.14-.3,11.43.36,22.82,1.95,34.16.5,3.56,1.76,6.61,4.58,8.93,1.21,1,2.48,2.13,2.53,3.78.19,5.75,2.77,10.94,3.81,16.49.49,2.61,1.04,5.25,2.69,7.45,1.38,1.85,1.63,3.79.95,5.97-2.11,6.75-3.69,13.63-4.74,20.63-.21,1.43-.56,2.84-.15,4.27,1.76,6.24.96,12.78,2.36,19.08.57,2.55.34,5.26.39,7.91.08,4.5-1.39,8.82-.59,13.47.5,2.95,2.03,5.6,2.06,8.59.07,8.81-.16,17.59.46,26.43.51,7.2-.78,14.57-.73,21.91.04,5.43.99,10.9-.14,16.35-.22,1.04.53,2.35,1.05,3.44,2.37,5,2.04,10.39,1.44,15.5-.72,6.18-.69,11.98,2.74,17.29,1.63,2.51,2.34,4.45-.87,6.13-.43.23-.86.86-.91,1.34-.72,6.79-4.65,13.12-2.42,20.41.89,2.89,2.01,4.74,4.8,5.69,1.76.61,3.68,1,5.04,2.43,7.33,7.68,16.33,9.54,26.46,7.82,2.45-.42,3.41-1.56,3.33-4.01-.12-3.74.42-7.63,1.34-11.06,2.15-7.94,5.6-15.51,6.01-23.94.1-2.09-.17-3.72-1.73-5.04-2.08-1.76-2.79-4.03-3.26-6.67-.68-3.84-.19-7.51.5-11.22.51-2.76.29-5.52.2-8.29-.44-12.4-1.21-24.81-.99-37.2.11-6.18.48-12.4.36-18.6-.07-3.58.25-7.47-1.72-10.68-1.9-3.1-1.84-5.85.3-8.6,1.8-2.33,2.29-4.9,2.25-7.79-.07-6.97-.47-13.99,1.67-20.81.32-1.01.42-2.28.12-3.29-1.71-5.84-.32-11.66.04-17.48.35-5.61,1.58-11.21-.16-16.83-.27-.87-.01-1.99.25-2.93,1.07-3.76,1.62-7.57,1.48-11.5-.06-1.38-.15-2.88,1.36-4.14,2.66,7.86,7.65,14.63,6.76,23.62-.56,5.67-.15,11.76,4.1,16.63,1.09,1.23,1.53,3,1.52,4.69-.05,6.31,2.16,12.18,3.4,18.24.36,1.75,1.07,3.42,2.13,4.85,3.29,4.41,6.33,8.81,2.24,14.35.81,4.89-.49,9.87.12,14.6.43,3.24,1.29,6.65,1.5,9.96.26,4.01.29,8.27-.81,12.07-1.35,4.67-1.59,9.22-1.31,13.95.28,4.87.21,9.74-.02,14.62-.31,6.76-2.28,13.6,1.21,20.24.99,1.9.76,4.43-.1,6.52-.89,2.17-.36,3.69.61,5.81,1.69,3.68,3.7,7.64,1.73,12.03-1.18,2.61-.82,5.27.54,7.7,1.37,2.46,2.72,4.83,1.85,7.82-.23.79.32,1.43.83,2.06,2.86,3.52,4.1,7.56,3.29,12.05-.46,2.52.12,4.54,2.44,5.57,7.03,3.16,14.18,3.24,21.27.14,1.69-.74,3.91-.94,4.81-2.74,1-1.99,2.52-2.11,4.37-2.24,4.32-.28,8.61-.74,12.52-2.91,2.21-1.22,3.26-2.81,3.62-5.47.52-3.87-1.41-7.14-1.72-10.71-.41-4.65-2.99-6.66-7.11-7.37-1.88-.33-2.49-1.26-2.65-3.12-.29-3.39.8-6.35,2.24-9.25,1.18-2.39,1.13-4.55-.35-6.89-2.37-3.77-4-7.94-5.24-12.2-.97-3.32-1.57-6.88.93-9.83,1.94-2.3,2.62-4.85,2.5-7.68-.41-9.15,1-18.19-.17-27.49-1.56-12.36-.9-24.99-1.3-37.5-.11-3.64-1.26-7.29-.37-10.92,1.02-4.13.73-8.25-1.72-11.5-3.51-4.67-3.36-8.62-1.37-14.15,3.86-10.65,2.74-22.18,2.58-33.3-.11-7.02-2.39-13.97-2.86-21.24-.74-11.66-.38-23.4-2.65-35.07-1.85-9.5-1.54-19.41-2.26-29.13-.3-4.02-1.15-7.91-3.64-11.25-.57-.77-1.02-1.55-.79-2.73.84-4.32.69-8.42-2.22-12.19-2.38-3.07-1.28-5.83,2.06-7.44,3.14-1.52,6.51-3.04,8.91-5.43,1.96-1.96,2.78-1.59,4.02.09,1.32,1.78,2.57,3.62,3.73,5.51,5.51,9.02,11.84,17.42,19.47,24.74,2.86,2.75,4.18,5.51,2.63,9.44-1.18,3.02-.87,5.9,1.07,8.81,1.62,2.43,3.07,5.26,2.47,8.43-.56,2.98-.39,5.97-.49,8.96-.08,2.32.01,4.45,2.91,5.2,1.4.36,1.41,1.82,1.66,3.01.58,2.83,2.11,3.76,4.7,2.43,2.39-1.22,4.92-2.02,7.35-3.09,3.65-1.61,5.85-4.19,5.57-8.53-.2-3.2-.15-6.44.04-9.65.19-3.13-.66-5.81-2.28-8.48Zm-196.5-70.17c-1.27.29-1.61-.9-2.03-1.79-1.39-2.95-2.28-6.01-1.95-9.16-.37-2.65.06-5.02,1.01-7.31.29-.7.72-1.49,1.68-1.28.78.16.78.98,1,1.59,1.23,3.36-.55,6.81.29,10.21.43,1.71.53,3.5.75,5.26.12.93.66,2.16-.75,2.48Zm186.5,90.94c-2.87,1.52-3.68,1.08-3.76-2.18-.03-1.11-.01-2.22-.01-2.79.11-2.75.03-4.97.64-7.15.32-1.17.92-1.94,2.1-1.25,2.82,1.65,3.13,4.69,3.67,7.47.47,2.46-.18,4.6-2.64,5.9Z"/><path class="cls-1" d="m617.27,791.22c-8.6,0-15.7-3.04-21.57-9.19-.67-.71-1.76-1.05-3.02-1.46-.35-.11-.69-.22-1.03-.34-4.04-1.38-5.45-4.33-6.37-7.32-1.68-5.5-.36-10.3.91-14.95.61-2.23,1.19-4.34,1.41-6.46.14-1.3,1.05-2.65,2.22-3.28.8-.42.95-.68.95-.68-.02-.02-.08-.47-1-1.88-3.97-6.15-3.85-12.74-3.13-18.94.55-4.69.91-9.65-1.21-14.14l-.19-.39c-.6-1.22-1.42-2.88-1.05-4.64.72-3.46.51-6.99.3-10.73-.1-1.66-.2-3.37-.21-5.09-.02-3.24.21-6.48.43-9.62.3-4.21.58-8.19.3-12.13-.46-6.62-.46-13.27-.45-19.71,0-2.29,0-4.58-.01-6.88-.01-1.37-.48-2.79-.97-4.3-.4-1.23-.82-2.5-1.05-3.9-.54-3.13-.18-6,.16-8.78.22-1.76.42-3.41.39-5.06-.01-.71,0-1.42,0-2.13.02-1.89.03-3.67-.33-5.28-.69-3.11-.88-6.22-1.06-9.23-.2-3.4-.4-6.62-1.27-9.72-.5-1.73-.23-3.37-.02-4.68l.1-.63c1.07-7.1,2.69-14.17,4.83-21.01.46-1.49.3-2.57-.57-3.73-2.07-2.76-2.69-6.07-3.14-8.48-.38-2.04-.99-4.04-1.63-6.15-1.03-3.39-2.09-6.89-2.22-10.72-.02-.56-.81-1.27-1.62-1.94-3.03-2.49-4.82-5.93-5.46-10.51-1.61-11.48-2.27-23.12-1.97-34.57.05-1.96-.18-2.25-2.08-2.62-2.31-.45-4.5-1.18-6.61-1.89-2.29-.77-4.46-1.5-6.71-1.86-2.23-.37-3.83-1.62-5.17-3.02-.06.43-.11.85-.17,1.28-.6,4.51-1.17,8.79-1.08,13.09,4.36,2.95,5.15,7.61,5.8,11.4.11.66.22,1.32.35,1.97.25,1.23.53,2.46.81,3.68.75,3.23,1.52,6.56,1.63,10.09.04,1.29.12,3.7-2.38,5.1-1.23.68-3.67,1.43-6.27-1.2-1.99-2-2.64-4.46-3.21-6.63l-.2-.75c-.14-.49-.18-.96-.2-1.34,0-.1,0-.2-.02-.3-.03-.05-.05-.11-.08-.17-2.39,4.65-1.43,10.88,2.29,14.85,1.08,1.15,2.45,2.73,3.35,4.72.85,1.89.63,3.92-.57,5.29-1.18,1.35-3.04,1.81-4.97,1.23-1.35-.4-2.76-.62-4.26-.84-1.08-.16-2.19-.33-3.3-.58-7.7-1.73-13.22-6.94-14.78-13.96-.21-.94-.45-1.9-.69-2.87-.9-3.61-1.82-7.35-1.65-11.15.31-6.71-.38-13.54-1.03-20.14-.57-5.7-1.16-11.6-1.13-17.5.02-6.26.76-11.97,2.17-16.98.12-.43,0-.97-.21-1.81-.2-.79-.42-1.68-.41-2.71,0-2.74-.02-5.49-.05-8.23-.11-9.58-.22-19.49,1.42-29.29.26-1.51.23-3.13.21-4.84-.01-.85-.02-1.7,0-2.54-6.14-5.11-4.78-11.48-3.22-15.84.82-2.28,1.73-4.56,2.61-6.76,2.14-5.36,4.17-10.43,5.05-15.7.65-3.87,1.64-7.67,2.6-11.34,1.34-5.13,2.61-9.97,3.03-15.04.16-1.98.9-3.84,1.54-5.48l.24-.61c.6-1.53,1.29-3.53,1.33-5.58.08-4.71,2.04-8.64,5.82-11.68.93-.76,1.03-1.1.96-2.04-.75-8.73.98-11.04,9.74-12.99.87-.2,1.74-.43,2.61-.66,1.38-.37,2.81-.75,4.29-1,1.82-.32,5.24-.91,7.38,1.75,3.58-4.99,7.52-8.46,12.26-10.8.11-.79-.22-2.31-.63-2.66-8.33-5.27-13.15-13.31-17.39-20.4-.9-1.52-1.85-2.7-2.8-3.51-5.41-4.67-6.95-10.73-4.45-17.53,4.04-11.02,8.29-18.88,13.76-25.48l.08-.1c.23-.3.57-.75,1.13-1.12,12.8-8.54,26.28-9.22,36.97-1.88,3.04,2.08,5.85,3.09,8.61,3.09.06,0,.11,0,.17,0,2.89,0,4.87.83,5.9,2.46,1.01,1.59.93,3.62-.23,6.04-.21.45-.31.73-.34.9.17.12.51.32,1.21.62.77.34,1.59.64,2.46.95,3.45,1.25,7.36,2.68,9.41,6.99,2.55,5.4,2.51,10.5-.09,14.77-3.47,5.65-5.53,11.84-6.31,18.96-.16,1.41.16,1.55.43,1.67,3.54,1.61,5.6,4.54,6.14,8.71,0,.04,0,.08.02.11,2.59-.6,4.72.11,6.59.74l.1.03c3.5,1.17,7.4,1.05,12.25-.37,2.42-.71,7.43-2.17,10.23,3.36.21.08.65.16.95.22.45.09.96.18,1.48.35,1.24.4,2.49.74,3.82,1.1,4.04,1.09,8.22,2.22,12,5.13,7.58,5.83,11.81,14.11,15.2,20.75,1.65,3.24,3.09,6.6,4.47,9.86,2.32,5.43,4.5,10.56,7.63,15.23,3.16,4.72,6.06,9.66,8.86,14.44,2.55,4.34,5.18,8.83,7.97,13.08,2.96,4.5,2.14,6.22-1.83,9.08-2.65,1.91-5.5,2.97-8.25,4-1.16.43-2.25.84-3.33,1.31-.36.16-.57.28-.69.36.04.16.12.43.33.87,2.11,4.38,4.87,8.27,7.8,12.4l.9,1.27c4.02,5.67,6.8,12.22,8.28,19.45.43,2.1,1.24,4.13,2.09,6.28.57,1.44,1.16,2.93,1.65,4.47.79,2.5,1.54,5.01,2.29,7.52,2.36,7.88,4.79,16.03,8.33,23.58.95,2.03,1.88,4.07,2.8,6.1,3.03,6.67,6.17,13.57,10.01,19.9h0c2.01,3.31,2.85,6.47,2.64,9.93-.2,3.45-.22,6.51-.04,9.34.33,5.07-2.05,8.76-7.06,10.97-1.01.44-2.02.84-3.01,1.22-1.48.58-2.88,1.12-4.22,1.81-1.95,1-3.72,1.15-5.24.42-1.56-.75-2.58-2.28-3.05-4.57-.04-.2-.08-.42-.12-.64-.03-.17-.07-.39-.11-.56-4.61-1.42-4.46-5.73-4.39-7.6.03-.79.03-1.57.04-2.36.02-2.25.04-4.58.49-6.97.45-2.36-.81-4.65-2.09-6.58-2.37-3.55-2.81-7.29-1.32-11.11,1.01-2.56.48-4.32-2.03-6.73-7.24-6.94-13.74-15.2-19.87-25.24-1.1-1.79-2.31-3.58-3.6-5.32,0,0-.01-.02-.02-.03-.07.06-.14.14-.22.22-2.52,2.51-5.75,4.06-8.87,5.56l-.72.35c-1.07.52-1.76,1.15-1.9,1.74-.16.66.39,1.49.72,1.92,3.91,5.06,3.41,10.53,2.7,14.2-.03.16-.05.24.34.77,3.17,4.26,3.87,9.2,4.12,12.55.24,3.18.36,6.41.49,9.54.25,6.42.52,13.05,1.73,19.3,1.64,8.42,1.94,16.9,2.23,25.11.12,3.38.24,6.87.46,10.28.21,3.21.8,6.46,1.38,9.6.7,3.82,1.42,7.77,1.49,11.76.03,1.78.08,3.57.13,5.36.27,9.56.54,19.45-2.86,28.83-1.92,5.34-1.68,8.21,1.02,11.8,2.71,3.6,3.46,8.3,2.15,13.6-.48,1.95-.21,4.07.08,6.32.16,1.27.33,2.58.37,3.93.13,4.07.15,8.21.17,12.21.04,8.28.08,16.83,1.11,25.05.71,5.66.5,11.21.3,16.58-.14,3.65-.28,7.43-.12,11.11.16,3.68-.85,6.76-3.09,9.4-1.63,1.93-1.38,4.31-.44,7.52,1.34,4.62,2.96,8.4,4.96,11.57,1.92,3.03,2.08,6.08.48,9.33-1.18,2.38-2.24,4.99-1.99,7.93.04.44.1.66.13.75.07.03.21.08.46.12,5.6.97,8.69,4.2,9.17,9.61.1,1.18.44,2.4.79,3.7.61,2.21,1.3,4.72.91,7.57-.47,3.46-1.98,5.72-4.89,7.33-4.4,2.44-9.11,2.93-13.57,3.22-1.88.13-1.98.24-2.3.87-1.13,2.26-3.29,2.97-4.87,3.49-.43.14-.84.28-1.17.42-7.73,3.38-15.56,3.33-23.3-.15-1.85-.82-4.84-3-3.87-8.3.66-3.64-.25-6.92-2.77-10.02-.69-.85-1.88-2.32-1.29-4.34.54-1.86-.21-3.35-1.58-5.81l-.05-.09c-1.86-3.32-2.08-6.76-.63-9.95,1.42-3.15.06-6.08-1.5-9.47l-.22-.49c-1.07-2.34-1.92-4.7-.65-7.8.67-1.63.75-3.36.2-4.42-3.02-5.75-2.44-11.43-1.88-16.92.16-1.59.32-3.09.39-4.59.26-5.53.27-10.09.02-14.36-.33-5.62.11-10.33,1.41-14.79,1.04-3.61.93-7.89.72-11.21-.12-1.89-.48-3.9-.83-5.85-.23-1.29-.47-2.63-.65-3.94-.32-2.48-.17-4.95-.03-7.33.15-2.52.3-4.89-.08-7.19l-.17-1.04.63-.85c2.8-3.79,1.4-6.5-2.23-11.37-1.25-1.68-2.13-3.7-2.58-5.84-.36-1.77-.82-3.57-1.27-5.32-1.09-4.28-2.22-8.71-2.18-13.45,0-1.26-.32-2.36-.89-3.01-5.27-6.04-5.22-13.47-4.72-18.53.52-5.25-1.24-9.76-3.29-14.43-.23,2.43-.71,4.87-1.42,7.38-.29,1.03-.29,1.4-.26,1.52,1.49,4.8,1.03,9.45.59,13.95-.12,1.24-.25,2.52-.33,3.76-.09,1.5-.25,3.01-.41,4.46-.45,4.24-.87,8.25.27,12.16.42,1.41.37,3.14-.13,4.75-1.77,5.65-1.68,11.46-1.59,17.61.01.81.03,1.62.03,2.42.03,2.42-.22,6.04-2.77,9.34-1.48,1.91-1.52,3.52-.15,5.76,2.05,3.34,2.06,7.09,2.07,10.39,0,.52,0,1.03.01,1.54.08,4.12-.06,8.29-.19,12.31-.07,2.13-.14,4.26-.17,6.38-.16,9.22.23,18.65.62,27.77.13,3.1.26,6.2.37,9.3l.05,1.25c.1,2.44.2,4.97-.29,7.58-.71,3.85-1.07,7.07-.5,10.33.41,2.29.95,3.96,2.41,5.2,2.5,2.11,2.72,4.76,2.61,7.07-.3,6.24-2.16,11.98-3.96,17.52-.74,2.28-1.5,4.63-2.13,6.95-.91,3.4-1.36,7.07-1.25,10.33.12,3.71-1.7,5.92-5.41,6.55-2.48.42-4.85.63-7.12.63Zm-24.74-38.77c-.29,2.38-.92,4.65-1.52,6.85-1.13,4.14-2.21,8.05-.95,12.16.78,2.53,1.53,3.48,3.21,4.05.31.11.62.21.92.3,1.59.51,3.57,1.14,5.12,2.77,6.18,6.48,14.11,8.8,24.23,7.08,1.29-.22,1.29-.34,1.25-1.46-.12-3.79.37-7.86,1.42-11.79.66-2.44,1.45-4.86,2.2-7.19,1.78-5.48,3.45-10.65,3.73-16.22.09-1.87-.2-2.46-.85-3.01-2.75-2.33-3.6-5.29-4.11-8.14-.79-4.45-.15-8.59.5-12.12.38-2.06.3-4.21.21-6.48l-.05-1.28c-.11-3.08-.24-6.17-.37-9.26-.39-9.19-.79-18.69-.62-28.06.04-2.15.11-4.3.18-6.46.13-3.96.26-8.06.18-12.05,0-.53-.01-1.08-.01-1.62,0-2.91-.02-5.65-1.34-7.8-2.47-4.03-2.32-7.88.46-11.44,1.24-1.61,1.76-3.47,1.72-6.22,0-.81-.02-1.61-.03-2.41-.1-6.28-.2-12.77,1.82-19.19.2-.63.24-1.38.11-1.83-1.42-4.87-.93-9.56-.45-14.1.16-1.47.3-2.85.39-4.25.08-1.33.21-2.65.34-3.93.41-4.19.8-8.15-.39-12-.45-1.45-.16-2.94.23-4.34,1.06-3.73,1.51-7.24,1.39-10.74-.07-1.57-.18-4.12,2.26-6.15l2.8-2.33,1.17,3.45c.74,2.18,1.7,4.35,2.63,6.45,2.43,5.5,4.95,11.19,4.25,18.22-.66,6.67.42,11.21,3.5,14.74,1.39,1.57,2.15,3.83,2.14,6.35-.03,4.09.97,8.02,2.03,12.18.46,1.8.93,3.67,1.32,5.55.29,1.43.88,2.77,1.69,3.86,2.88,3.87,7.19,9.64,2.84,16.45.29,2.49.14,4.92,0,7.28-.14,2.25-.27,4.38,0,6.38.16,1.19.38,2.41.61,3.7.38,2.09.77,4.25.9,6.42.24,3.73.36,8.57-.9,12.92-1.13,3.9-1.51,8.06-1.22,13.11.26,4.45.25,9.18-.02,14.89-.08,1.64-.24,3.28-.41,4.87-.51,4.97-.99,9.66,1.33,14.09,1.24,2.39,1.24,5.61,0,8.63-.46,1.13-.37,1.77.57,3.82l.22.47c1.72,3.73,3.87,8.38,1.52,13.62-.78,1.72-.63,3.55.44,5.46l.05.09c1.35,2.42,3.02,5.42,2.15,9.14.06.08.13.16.18.23,3.5,4.31,4.78,9.04,3.86,14.13-.41,2.22.4,2.58.99,2.84,6.4,2.88,12.88,2.92,19.25.13.55-.24,1.09-.42,1.61-.59.91-.3,1.76-.58,1.96-.98,1.65-3.28,4.53-3.48,6.43-3.62,4.06-.26,7.98-.66,11.48-2.6,1.51-.83,2.1-1.75,2.36-3.62.25-1.84-.25-3.65-.78-5.57-.4-1.45-.81-2.95-.95-4.58-.28-3.15-1.64-4.54-5.04-5.12-4.32-.76-4.62-4.23-4.72-5.37-.36-4.18,1.06-7.69,2.49-10.58.81-1.65.75-2.9-.22-4.44-2.25-3.58-4.05-7.77-5.53-12.84-1.12-3.85-1.84-8.3,1.42-12.14,1.4-1.66,2.01-3.56,1.91-5.96-.17-3.88-.03-7.76.11-11.51.19-5.17.4-10.52-.27-15.77-1.08-8.52-1.12-17.23-1.15-25.65-.02-3.97-.04-8.07-.17-12.08-.03-1.11-.18-2.25-.33-3.45-.33-2.6-.67-5.29.03-8.14.65-2.64.96-6.42-1.29-9.4-4.3-5.72-3.8-10.73-1.73-16.5,3.08-8.5,2.82-17.9,2.56-26.99-.05-1.82-.1-3.63-.13-5.43-.06-3.57-.71-7.15-1.4-10.93-.6-3.29-1.22-6.69-1.45-10.18-.22-3.48-.35-7.01-.47-10.42-.29-8.02-.58-16.3-2.14-24.33-1.29-6.62-1.56-13.45-1.82-20.06-.12-3.08-.25-6.27-.48-9.37-.33-4.39-1.3-7.46-3.15-9.94-.51-.69-1.71-2.31-1.24-4.7.86-4.43.34-7.48-1.75-10.18-1.95-2.52-1.97-4.72-1.64-6.13.35-1.48,1.43-3.57,4.59-5.09l.73-.35c2.75-1.32,5.59-2.69,7.51-4.6,1.02-1.02,2.43-2.18,4.21-2.04,1.91.14,3.04,1.68,3.59,2.42,1.38,1.86,2.67,3.77,3.85,5.69,5.91,9.67,12.14,17.6,19.07,24.24,2.5,2.4,5.55,6.27,3.23,12.16-.9,2.3-.64,4.3.82,6.51,1.74,2.61,3.63,6.13,2.85,10.28-.37,1.95-.38,3.96-.4,6.09,0,.83-.02,1.66-.04,2.49-.08,2.41.15,2.47,1.04,2.7.32.08.61.19.87.32-.66-1.22-.69-2.7-.71-3.55-.02-.86-.02-1.73-.01-2.36v-.49c.03-.64.04-1.17.05-1.67.06-2.12.11-4.11.68-6.15.43-1.57,1.24-2.61,2.4-3.08.61-.25,1.86-.53,3.37.35,3.55,2.08,4.2,5.59,4.72,8.41l.14.74c.73,3.82-.67,6.86-3.92,8.59h0c-1.11.59-3.13,1.66-5,.84.53.9.7,1.89.81,2.52.03.16.05.32.09.47.12.57.25.88.33,1.02.14-.03.39-.1.78-.3,1.56-.8,3.15-1.42,4.68-2.01.98-.38,1.9-.74,2.81-1.14,3.05-1.34,4.27-3.16,4.08-6.08-.19-3.05-.18-6.3.04-9.96.15-2.43-.45-4.6-1.92-7.03h0c-4-6.58-7.2-13.62-10.29-20.42-.92-2.02-1.84-4.04-2.78-6.06-3.69-7.88-6.18-16.21-8.59-24.27-.74-2.49-1.49-4.98-2.27-7.46-.43-1.37-.96-2.71-1.52-4.13-.89-2.25-1.82-4.58-2.34-7.12-1.36-6.65-3.8-12.39-7.46-17.57l-.89-1.26c-2.92-4.11-5.93-8.37-8.23-13.13-.57-1.19-1.25-2.98-.57-4.81.67-1.79,2.28-2.67,3.43-3.18,1.2-.52,2.41-.97,3.57-1.41,2.56-.96,4.97-1.86,7.08-3.38.42-.3.98-.71,1.35-1.01-.14-.26-.38-.66-.78-1.26-2.86-4.36-5.53-8.91-8.11-13.3-2.77-4.71-5.62-9.59-8.7-14.19-3.39-5.06-5.77-10.64-8.07-16.05-1.35-3.18-2.75-6.46-4.33-9.55-4.03-7.88-7.6-14.3-13.8-19.06-2.99-2.3-6.52-3.25-10.25-4.26-1.33-.36-2.7-.73-4.06-1.17-.23-.07-.54-.13-.88-.2-1.26-.24-3.38-.65-4.43-2.79-.74-1.52-1.27-1.81-4.41-.9-5.88,1.72-10.72,1.82-15.24.31l-.11-.04c-1.73-.58-2.77-.9-3.96-.59-1.84.48-3.15-.04-3.92-.56-.81-.55-1.84-1.66-2.1-3.82-.31-2.43-1.32-3.91-3.25-4.79-1.77-.81-3.79-2.64-3.33-6.77.86-7.86,3.15-14.74,7.01-21.02,2.13-3.48,1.09-7.37-.16-10.01-1.17-2.45-3.68-3.37-6.6-4.43-.9-.33-1.84-.67-2.75-1.07-1.66-.72-3.29-1.64-3.96-3.43-.68-1.82,0-3.63.58-4.83.28-.58.38-.96.42-1.17-.25-.08-.78-.18-1.63-.17-.04,0-.09,0-.13,0-3.79,0-7.53-1.3-11.42-3.97-12.56-8.62-25.93-1.68-31.23,1.83-.02.03-.04.06-.06.08l-.18.24c-5.12,6.17-9.1,13.57-12.94,24.03-1.76,4.81-.78,8.74,3.01,12.01,1.38,1.17,2.64,2.73,3.84,4.74,3.96,6.61,8.44,14.11,15.8,18.76,2.23,1.41,3.08,4.61,2.93,7-.17,2.72-1.55,3.77-2.35,4.15-4.59,2.17-8.35,5.62-11.82,10.86-1.01,1.5-2.39,2.25-3.8,2.07-.62-.08-2.13-.49-2.85-2.58-.33-.96-.38-1.1-2.95-.66-1.28.22-2.54.56-3.88.91-.93.25-1.86.49-2.8.7-6.33,1.41-6.38,1.48-5.85,7.7.22,2.67-.62,4.56-2.79,6.34-2.62,2.11-3.92,4.69-3.97,7.89-.05,2.85-.92,5.41-1.67,7.31l-.24.62c-.57,1.45-1.11,2.81-1.21,4.06-.45,5.5-1.83,10.79-3.17,15.9-.93,3.56-1.89,7.25-2.5,10.9-.97,5.81-3.19,11.36-5.34,16.74-.87,2.17-1.76,4.4-2.54,6.6-1.78,4.97-1.29,7.87,1.75,10.35,1.51,1.23,1.79,2.7,1.76,3.72-.03.85-.01,1.71,0,2.56.03,1.87.06,3.8-.28,5.75-1.56,9.36-1.45,19.04-1.35,28.41.03,2.77.06,5.54.05,8.31,0,.41.12.9.26,1.48.29,1.18.66,2.66.17,4.39-1.29,4.57-1.96,9.83-1.98,15.64-.03,5.63.55,11.4,1.1,16.98.68,6.78,1.38,13.8,1.05,20.87-.14,3.07.7,6.45,1.51,9.72.25,1,.5,2,.71,2.98,1.13,5.08,5.23,8.88,10.99,10.17.94.21,1.92.36,2.96.52,1.37.21,2.79.42,4.22.8-.47-.86-1.16-1.76-2.17-2.83-5.15-5.48-6.43-14.15-3.06-20.63.08-.16.15-.34.22-.53.4-1.01,1.46-3.71,4.47-3.38,2.58.3,3.57,2.58,4.1,3.8.08.2.17.39.25.57.36.77.42,1.48.45,2,0,.13.01.25.04.38l.22.81c.47,1.79.88,3.34,1.93,4.39.04.04.07.07.11.11,0-.12,0-.23,0-.32-.09-3.04-.78-6-1.5-9.12-.29-1.27-.59-2.55-.84-3.83-.14-.69-.26-1.4-.38-2.11-.62-3.62-1.15-6.74-4.24-8.45-1.5-.81-1.59-2.61-1.62-3.28-.14-4.86.49-9.64,1.11-14.26.28-2.12.57-4.32.79-6.51l.48-4.85,3.66,3.22c1.01.89,1.86,1.87,2.61,2.73,1.43,1.66,2.37,2.68,3.55,2.87,2.65.43,5.12,1.26,7.5,2.06,2.05.69,3.99,1.34,5.97,1.72,4.29.83,6.23,3.27,6.12,7.66-.29,11.18.36,22.54,1.93,33.75.47,3.37,1.61,5.63,3.69,7.35,1.26,1.04,3.35,2.77,3.44,5.64.1,3.16,1.03,6.2,2.01,9.42.65,2.15,1.33,4.37,1.76,6.68.49,2.59.96,4.72,2.23,6.41,1.83,2.45,2.28,5.21,1.34,8.21-2.06,6.6-3.63,13.41-4.65,20.26-.03.23-.07.47-.11.7-.16.99-.3,1.84-.11,2.51,1.02,3.63,1.24,7.27,1.45,10.78.18,2.94.34,5.72.95,8.44.48,2.17.47,4.32.45,6.41,0,.67-.01,1.34,0,2,.04,2-.2,3.91-.43,5.77-.31,2.53-.61,4.92-.2,7.33.18,1.04.52,2.08.88,3.18.59,1.8,1.2,3.66,1.22,5.81.02,2.31.02,4.62.01,6.93,0,6.35-.01,12.91.44,19.35.3,4.29,0,8.64-.3,12.84-.22,3.04-.44,6.19-.42,9.23.01,1.58.1,3.16.2,4.83.22,3.87.46,7.87-.38,11.96.05.32.41,1.05.62,1.49l.22.45c2.7,5.69,2.27,11.69,1.67,16.87-.71,6.1-.58,11.09,2.36,15.64,1.17,1.81,2.18,3.78,1.62,5.91-.38,1.45-1.38,2.63-3.06,3.59Zm.05-.41s0,.01,0,.02c0,0,0,0,0-.02Zm-3.49-43.46s0,0,0,0c0,0,0,0,0,0Zm149.48-205.04c-.13,1.02-.16,2.13-.2,3.41-.01.53-.03,1.07-.05,1.64v.43c0,.58-.01,1.39.01,2.19,0,.03,0,.06,0,.08.03-.01.06-.03.09-.05h0c1.07-.57,1.71-1.33,1.35-3.22l-.15-.78c-.29-1.59-.55-2.8-1.06-3.71Zm-192.64-6.57s.04.02.06.03c-.02-.01-.04-.02-.06-.03Zm6.74-71.89c-1.6,0-2.85-1.01-3.74-3l-.12-.27c-1.75-3.71-2.47-7.04-2.21-10.18-.34-2.8.06-5.53,1.22-8.31,1.29-3.1,3.59-2.97,4.52-2.76,2.1.43,2.6,2.34,2.76,2.97.02.07.04.15.06.21.85,2.33.6,4.58.38,6.56-.16,1.41-.3,2.74-.02,3.89.36,1.42.51,2.82.65,4.19.05.46.1.91.15,1.36.01.1.04.21.06.32.72,3.7-1.67,4.66-2.74,4.9-.34.08-.67.12-.98.12Z"/><path class="cls-3" d="m976.37,267.66c-2.12,2.61-3.54,5.04-2.6,8.96,1.54,6.43.59,7.43-5.68,9.76-4.05,1.5-6.96,3.94-8.6,8.15-1.75,4.48-5.14,7.99-8.22,11.63-5.9,6.98-9.61,15.07-12.24,23.72-.81,2.65.42,5.28.3,7.93-.83,19.9,3.42,38.99,9.32,57.79,2.99,9.53,5.57,19.13,7.75,28.9,2.02,9.06,6.02,17.61,8.27,26.66.88,3.56,1.94,7.07,2.86,10.61,1.74,6.62.94,6.51-3.66,11.23-3.36,3.46-6.25,8.03-6.96,13.31-.52,3.86.61,7.29,2.76,10.36,3.46,4.95,4.87,10.65,6.37,16.33.31,1.19.27,2.46-.17,3.62-5.76,15.18-9,31.05-12.11,46.89-1.82,9.23-4.03,18.38-5.89,27.59-1.21,5.99-1.69,12.02-2.85,17.92-.97,4.96-2.91,9.92-4.46,14.86-.34,1.06-.87,2.11-.94,3.19-1.09,16.84-5,33.21-8.21,49.69-.8,4.08-.63,8.2-.5,12.28.28,9.2-1,18.36-.6,27.57.11,2.65,1.29,4.92,2.15,7.28,1.3,3.55,1.44,6.79-.55,10.18-1.67,2.84-.79,5.21,2.36,7.67,1.63,1.28,3.76,2.2,3,4.95-.18.64.26,1.13.83,1.22,6.21,1.05,10.64,6.22,16.52,7.55,6.96,1.57,13.59,4.71,20.97,4.51,3.76-.1,5.43,2.07,4.91,5.79-.2,1.43-.54,2.81-.22,4.28.27,1.2-.26,2.24-1.22,2.9-6.2,4.26-12.76,7.63-20.5,7.78-7.66.15-15.24.03-22.58-2.95-3.04-1.23-6.58-.99-9.67.8-8.46,4.88-17.57,4.94-26.82,3.43-3.6-.58-7.04-1.87-10.75-2.14-3.42-.24-4.14-4.07-3.13-7.17,1.47-4.48,5.14-7.86,4.74-13.54-.3-4.17.44-8.9,1.06-13.35.22-1.53,1.38-2.48,2.22-3.64,1.91-2.66,1.28-4.42-1.86-5.4-6.66-2.08-8.6-6.36-6.77-13.03,1.91-6.94,2.13-14.21,3.01-21.35,1.4-11.35-.25-22.88,1.91-34.16,1.87-9.81,2.79-19.74,4.32-29.59.48-3.11.48-6.23.29-9.29-.64-10.23,1.9-20.3,1.4-30.51-.11-2.21.34-4.48-.34-6.62-2.18-6.82-1.43-13.57.43-20.27.78-2.81,1.17-5.55.78-8.5s-.45-5.97.27-8.94c.91-3.76-1.7-6.13-3.68-9.2-2.18,3.35-2.65,6.68-3.44,9.89-3.19,12.9-6.46,25.77-11.73,38.04-1.46,3.4-2.24,6.95-1.99,10.69.22,3.41-.61,6.58-1.99,9.68-1.56,3.49-2.39,6.95-.9,10.88,2.16,5.71-.2,11.41-1.23,16.95-.9,4.8-2.28,9.47-1.87,14.41.86,10.41-1.07,20.65-3.17,30.66-1.3,6.18-4.1,12.4-8.94,17.2-4.87,4.83-4.81,6.47-2.16,12.63,2.54,5.9,3.21,12.39,4.93,18.57.43,1.53-.28,3.08-1.16,4.4-1.93,2.92-2.8,6.21-3.6,9.55-.34,1.43.21,2.6.65,3.85,1.8,5.06,1.14,7.48-3,10.8-.92.74-1.42,1.54-1.4,2.81.07,4.3-2.42,6.86-6.72,7.21-6.35.52-12.62-.07-18.82-1.45-5.2-1.15-7-3.93-5.83-8.87.19-.83.19-1.57-.29-2.23-1.92-2.64-.95-5.82-1.61-8.7-.22-.97.24-2.32,1.12-2.62,3.14-1.07,1.54-2.77,1.37-4.87-.37-4.71-2.11-9.08-2.66-13.67-.71-5.86.75-10.93,6.21-14.35,4.14-2.59,4.61-4.98,2.07-8.88-2.93-4.47-3.97-9.34-4.81-14.61-1.28-8-.84-15.82,1.01-23.41,3.67-15.03,2.58-30.63,6.03-45.65.77-3.35,2.18-6.44,2.85-9.86,2.26-11.62,4.66-23.16,5.2-35.05.2-4.57,1.47-9.14,2.17-13.73,1.19-7.76.07-15.43-.02-23.14-.03-2.18-.36-4.4-.4-6.62-.07-3.76.29-7.23-2.71-10.68-2.28-2.62-3.77-6.4-5.25-9.73-2.63-5.9-3.85-12.21.09-18.32.99-1.54.05-3.08-.84-4.31-1.1-1.49-1.64-3.05-1.87-4.87-.6-4.7-.83-9.69-2.33-13.95-1.43-4.04-1.63-8.93-5.16-12.18-.08-.07-.14-.17-.21-.26-8.61-12.24-14.66-18.09-27.04-26.87-5.05-3.59-8.48-8.38-8.56-14.96-.01-.75-.07-1.86-.53-2.17-2.59-1.79-1.99-4.13-1.49-6.57.66-3.26.99-6.6,1.84-9.81,1.04-3.91-.16-7-2.89-9.61-2-1.9-3.44-4-3.93-6.76-.15-.85-.45-1.82-1.02-2.42-2.36-2.52-2.24-5.33-2.07-8.6.59-11.37,2.47-22.43,6.07-33.23.45-1.34.77-2.82.75-4.23-.11-6.21,2.78-11.03,7.44-14.57,6.14-4.66,11.07-10.88,18.45-14.04,2.95-1.26,2.63-4.95,3.27-7.66.62-2.65,1.07-5.2,3.31-7.04.39-.33.97-1.11.84-1.31-2.11-3.47-.48-8.66-5.08-11.01-2.04-1.05-3.33-2.87-4.32-4.92-2.01-4.2-3.69-8.56-6.38-12.42-.36-.52-.65-1.24-.64-1.86.06-6.06-2.12-11.98-.93-18.14.46-2.37,1.53-4.09,3.35-5.5,2.35-1.8,3.89-3.95,3.1-7.12-.19-.79,0-1.54.36-2.26,4.56-9.14,16.27-13.55,25.89-9.72,1.34.53,2.67,1.08,4.01,1.61,6.23,2.43,11.04,5.97,14.74,12.09,3.53,5.84,5.97,12.23,9.97,17.84,4.51,6.33,4.16,14.16,4.6,21.54.15,2.59.73,3.56,3.17,3.72,1.43.09,3.07.1,4.22.79,5.49,3.33,10.01,1.12,14.52-2.07,1.24-.87,1.87-1.49,1.27-3.2-.8-2.27-1.2-4.64-2.14-6.92-1.45-3.53,1.84-10.17,6.69-12.71,4.76-2.49,8.51-5.85,11.85-9.95,2-2.46,4.72-3.77,8.17-3.71,9.11.17,18.1-1.41,27.15-2.16,10.81-.9,21.71-1.14,32.53.51,3.72.57,7.49.84,11.1,2.06,6.98,2.36,8.77,6.54,5.99,13.44-2.1,5.22-6.3,8.79-9.63,13.04-.82,1.05-1.77,1.99-2.61,3.03Z"/><path class="cls-1" d="m909.2,785.39c-3.63,0-7.05-.42-10.11-.92-1.56-.25-3.08-.63-4.55-.99-2.05-.5-3.99-.98-5.98-1.13-1.94-.14-3.58-1.07-4.63-2.62-1.35-2-1.62-5-.7-7.82.58-1.76,1.42-3.31,2.23-4.8,1.4-2.57,2.61-4.8,2.4-7.79-.29-4.11.33-8.55.93-12.85l.14-1.02c.27-1.85,1.28-3.06,2.09-4.03.2-.24.4-.48.59-.73.38-.53.52-.86.57-1.03-.15-.11-.48-.3-1.15-.51-5.4-1.69-11.24-5.84-8.44-16.08,1.32-4.79,1.79-9.7,2.3-14.9.19-2,.39-4.06.64-6.1.6-4.9.62-9.99.64-14.91.02-6.35.05-12.92,1.29-19.42,1.12-5.9,1.92-11.98,2.69-17.86.5-3.81,1.01-7.76,1.62-11.64.39-2.55.48-5.33.27-8.75-.34-5.43.18-10.81.69-16,.49-5,.95-9.73.71-14.54-.04-.83-.01-1.64.01-2.42.04-1.31.09-2.55-.24-3.57-2.05-6.42-1.92-13.31.4-21.7.8-2.87,1.02-5.19.71-7.5-.49-3.72-.39-6.94.32-9.86.31-1.3-.03-2.32-.86-3.65-.42,1.25-.71,2.53-1.01,3.84-.13.56-.26,1.12-.39,1.68-2.81,11.36-6.3,25.48-11.86,38.43-1.42,3.3-2,6.42-1.79,9.54.22,3.48-.5,7.03-2.2,10.86-1.63,3.66-1.88,6.26-.85,8.98,1.95,5.16.75,10.23-.32,14.7-.3,1.25-.58,2.42-.79,3.59-.2,1.06-.42,2.11-.64,3.15-.77,3.64-1.49,7.08-1.2,10.59.88,10.64-1.02,20.92-3.21,31.38-1.55,7.37-4.88,13.75-9.62,18.46-4.02,3.99-3.94,4.49-1.62,9.87,1.73,4.01,2.63,8.23,3.5,12.31.47,2.18.95,4.44,1.54,6.58.83,2.97-.91,5.59-1.49,6.46-1.67,2.53-2.46,5.46-3.25,8.75-.12.49.06,1.01.4,1.95l.18.49c2.15,6.05,1.16,9.61-3.79,13.58-.47.38-.47.5-.46.82.09,5.55-3.36,9.28-9.02,9.74-6.31.52-12.71.03-19.57-1.5-3.35-.74-5.62-2.12-6.93-4.21-1.27-2.03-1.53-4.54-.79-7.68.03-.14.04-.23.05-.28-1.62-2.29-1.68-4.8-1.73-6.82-.02-.98-.05-1.9-.23-2.7-.47-2.07.53-4.79,2.75-5.54.05-.02.1-.03.14-.05-.03-.11-.05-.21-.08-.31-.14-.53-.32-1.19-.38-1.94-.18-2.34-.74-4.61-1.33-7.01-.52-2.11-1.05-4.3-1.32-6.56-.91-7.49,1.57-13.14,7.37-16.77,1.45-.9,2.29-1.73,2.43-2.38.14-.64-.24-1.65-1.13-3.01-3.29-5.02-4.37-10.45-5.18-15.58-1.29-8.05-.93-16.26,1.05-24.4,1.83-7.5,2.46-15.36,3.08-22.97.6-7.44,1.22-15.13,2.95-22.65.38-1.66.9-3.23,1.4-4.75.57-1.72,1.1-3.34,1.43-5.03l.51-2.61c2.04-10.45,4.16-21.26,4.65-32.07.14-3.16.75-6.28,1.34-9.3.3-1.55.62-3.15.85-4.69.78-5.11.52-10.16.23-15.5-.12-2.36-.25-4.8-.28-7.23-.01-1.01-.1-2.06-.19-3.16-.09-1.11-.19-2.27-.21-3.44,0-.43-.01-.87-.01-1.3-.02-3.15-.03-5.43-2.08-7.79-2.24-2.58-3.76-6.04-5.09-9.1l-.55-1.26c-2.29-5.14-4.76-12.89.27-20.69.03-.14-.04-.48-.76-1.49-1.28-1.74-2.03-3.66-2.33-6.02-.14-1.09-.26-2.2-.38-3.32-.38-3.49-.77-7.11-1.83-10.12-.43-1.23-.76-2.5-1.07-3.73-.73-2.88-1.42-5.6-3.42-7.44-.22-.19-.39-.43-.48-.55l-.08-.11c-8.28-11.78-13.97-17.42-26.44-26.27-6.3-4.48-9.53-10.19-9.61-16.97,0-.25-.01-.44-.02-.58-3.2-2.64-2.48-6.09-2-8.42l.06-.27c.25-1.21.44-2.43.65-3.72.33-2.04.67-4.15,1.22-6.23.74-2.79.06-5-2.2-7.16-2.64-2.51-4.13-5.09-4.66-8.13-.13-.72-.31-1.07-.38-1.14-3.12-3.33-2.92-7.11-2.75-10.45.63-12.2,2.66-23.29,6.2-33.89.42-1.26.64-2.43.62-3.4-.12-6.58,2.8-12.32,8.43-16.6,1.97-1.5,3.8-3.15,5.73-4.9,3.91-3.53,7.95-7.19,13.25-9.45.87-.37,1.12-1.47,1.44-3.7.1-.73.21-1.49.39-2.23l.13-.54c.57-2.48,1.21-5.27,3.58-7.47-.49-1.28-.71-2.56-.91-3.74-.44-2.57-.75-3.96-2.43-4.81-2.99-1.54-4.53-4.2-5.43-6.06-.5-1.05-.98-2.11-1.46-3.16-1.45-3.18-2.82-6.19-4.71-8.91-.34-.49-1.11-1.78-1.09-3.33.02-2.22-.29-4.46-.62-6.83-.52-3.75-1.06-7.64-.27-11.75.57-2.92,1.97-5.21,4.27-7,2.33-1.79,2.57-3.06,2.21-4.54-.31-1.3-.13-2.63.55-3.98,5.16-10.34,18.19-15.25,29.05-10.92.67.27,1.34.54,2.02.81.66.27,1.32.54,1.99.8,7.16,2.79,12.24,6.96,15.96,13.12,1.5,2.48,2.81,5.07,4.08,7.56,1.82,3.58,3.54,6.97,5.78,10.12,4.3,6.04,4.61,13,4.91,19.73.05,1.04.09,2.08.15,3.11.04.75.12,1.12.17,1.28.11.03.32.07.67.09l.47.03c1.48.08,3.32.18,4.87,1.11,4.08,2.47,7.29,1.22,11.79-1.97.17-.12.29-.21.37-.27,0-.02-.01-.04-.02-.06-.37-1.06-.66-2.12-.94-3.15-.35-1.28-.68-2.5-1.15-3.65-2.01-4.89,1.88-12.75,7.84-15.88,4.14-2.17,7.66-5.13,11.07-9.31,2.52-3.1,6.04-4.68,10.15-4.63,6.03.11,12.16-.58,18.1-1.25,2.88-.32,5.85-.66,8.8-.9,13.08-1.09,23.6-.92,33.11.53.88.13,1.76.25,2.64.37,2.91.39,5.91.79,8.89,1.79,4.15,1.4,6.8,3.45,8.09,6.25s1.12,6.28-.58,10.49c-1.65,4.09-4.37,7.17-7.01,10.15-1.05,1.19-2.05,2.31-2.98,3.5-.49.63-1,1.2-1.5,1.75-.39.43-.77.86-1.14,1.31h0c-1.96,2.41-2.77,4.04-2.11,6.81,1.9,7.91-.04,10.01-7.24,12.69-3.66,1.35-5.86,3.43-7.14,6.71-1.65,4.23-4.52,7.55-7.3,10.77-.45.52-.9,1.04-1.34,1.57-5.13,6.07-8.87,13.32-11.76,22.83-.32,1.05-.13,2.25.09,3.65.17,1.1.37,2.35.31,3.66-.7,16.84,2.14,34.4,9.21,56.93,3.01,9.6,5.64,19.39,7.8,29.1,1.04,4.65,2.66,9.3,4.23,13.81,1.44,4.14,2.94,8.41,4.02,12.79.49,1.99,1.05,4,1.59,5.95.43,1.54.86,3.08,1.26,4.63,1.78,6.76,1.11,8.17-3.06,12.36-.38.38-.78.79-1.23,1.25-2.47,2.55-5.57,6.68-6.27,11.9-.4,2.97.36,5.78,2.33,8.59,3.57,5.11,5.09,10.87,6.55,16.43l.18.7c.46,1.74.37,3.52-.25,5.15-5.5,14.49-8.68,29.62-11.99,46.48-.97,4.91-2.06,9.86-3.12,14.65-.94,4.24-1.9,8.63-2.78,12.95-.61,3-1.03,6.09-1.45,9.08-.4,2.9-.82,5.89-1.4,8.83-.73,3.71-1.96,7.4-3.16,10.97-.47,1.39-.93,2.77-1.37,4.16-.12.36-.24.71-.37,1.05-.22.59-.43,1.15-.46,1.55-.88,13.66-3.63,27.16-6.29,40.22-.66,3.26-1.33,6.52-1.96,9.79-.71,3.65-.6,7.34-.47,11.25l.02.47c.14,4.53-.1,9.08-.32,13.48-.24,4.62-.48,9.41-.28,14.06.07,1.63.7,3.21,1.36,4.88.22.55.44,1.1.64,1.66,1.7,4.64,1.46,8.55-.74,12.3-.58.99-1.24,2.11,1.74,4.43.23.18.47.35.7.52,1.28.92,3.5,2.51,3.42,5.46,3.1.81,5.7,2.39,8.23,3.93,2.37,1.44,4.61,2.8,7.01,3.35,2.3.52,4.57,1.2,6.76,1.87,4.61,1.39,8.98,2.7,13.59,2.58,3.17-.09,4.97,1.15,5.9,2.19.97,1.08,2.02,3.08,1.55,6.44-.04.27-.08.54-.12.81-.16.99-.29,1.84-.13,2.59.47,2.1-.39,4.21-2.25,5.49-5.44,3.73-12.83,8.04-21.87,8.22-7.97.16-15.77.03-23.57-3.13-2.38-.96-5.1-.73-7.48.65-6.19,3.57-12.54,4.65-18.36,4.65Zm-15.8-244.68l2.09,3.24c.37.58.77,1.13,1.16,1.68,1.8,2.51,3.84,5.35,2.85,9.47-.57,2.34-.64,4.89-.22,8.02.39,2.98.12,5.99-.85,9.5-2.06,7.4-2.2,13.39-.46,18.84.59,1.85.53,3.66.47,5.25-.02.71-.05,1.37-.01,2,.25,5.17-.25,10.31-.73,15.27-.51,5.23-.99,10.18-.67,15.21.24,3.79.14,6.91-.31,9.83-.59,3.82-1.11,7.74-1.6,11.52-.78,5.95-1.58,12.11-2.73,18.15-1.16,6.04-1.18,12.09-1.21,18.5-.02,5.07-.04,10.31-.68,15.5-.24,1.97-.44,4-.63,5.97-.5,5.18-1.02,10.54-2.45,15.74-1.52,5.56-.09,8.36,5.11,9.98,2.39.75,3.89,1.99,4.46,3.69.57,1.69.12,3.56-1.31,5.56-.26.35-.53.68-.8,1.01-.56.68-.91,1.11-.97,1.53l-.14,1.02c-.57,4.04-1.16,8.21-.9,11.79.31,4.45-1.44,7.68-2.99,10.53-.74,1.36-1.43,2.64-1.87,3.97-.48,1.47-.32,2.86.09,3.47.16.23.36.39.84.43,2.41.18,4.65.73,6.82,1.26,1.43.35,2.79.69,4.16.91,10.65,1.74,18.41.77,25.17-3.13,3.71-2.15,8.04-2.5,11.86-.95,6.92,2.81,14.16,2.91,21.59,2.77,7.66-.15,13.97-3.79,19.13-7.34.23-.16.21-.23.2-.29-.37-1.68-.13-3.15.07-4.45.04-.24.08-.48.11-.73.16-1.13.04-2.01-.33-2.42-.44-.49-1.46-.54-2.04-.53-5.41.15-10.38-1.35-15.17-2.79-2.2-.67-4.29-1.29-6.42-1.78-3.2-.72-5.9-2.36-8.51-3.95-2.62-1.6-5.1-3.1-7.88-3.57-.99-.16-1.88-.73-2.42-1.57-.53-.83-.67-1.82-.4-2.79.15-.56.17-.63-1.27-1.66-.29-.21-.59-.42-.87-.64-5.31-4.15-4.55-8.22-2.97-10.9,1.43-2.43,1.54-4.84.36-8.05-.19-.51-.39-1.02-.59-1.52-.75-1.89-1.61-4.04-1.71-6.51-.21-4.89.04-9.79.28-14.53.22-4.3.45-8.74.32-13.07v-.47c-.14-4.02-.28-8.17.55-12.37.64-3.28,1.3-6.55,1.97-9.83,2.62-12.89,5.33-26.22,6.2-39.54.07-1.13.44-2.11.76-2.98.1-.27.2-.54.29-.81.44-1.4.92-2.82,1.39-4.24,1.15-3.41,2.33-6.95,3-10.34.55-2.81.96-5.73,1.35-8.56.43-3.06.87-6.23,1.5-9.38.88-4.36,1.85-8.77,2.79-13.04,1.05-4.76,2.14-9.69,3.09-14.54,3.35-17.09,6.59-32.44,12.22-47.29.24-.64.28-1.39.09-2.1l-.18-.69c-1.42-5.38-2.75-10.45-5.82-14.84-2.68-3.83-3.76-7.91-3.19-12.13.88-6.57,4.64-11.63,7.64-14.72.46-.47.88-.9,1.27-1.29q2.97-2.98,1.76-7.57c-.4-1.53-.82-3.04-1.24-4.56-.55-1.98-1.12-4.04-1.63-6.09-1.03-4.15-2.49-8.32-3.89-12.35-1.62-4.64-3.29-9.44-4.39-14.37-2.14-9.58-4.72-19.23-7.7-28.7-7.25-23.1-10.16-41.19-9.43-58.64.04-.81-.11-1.71-.26-2.67-.28-1.75-.59-3.74.06-5.89,3.05-10.04,7.21-18.09,12.72-24.6.45-.54.92-1.07,1.38-1.6,2.62-3.03,5.08-5.89,6.42-9.32,1.8-4.61,5.09-7.74,10.06-9.58q5.28-1.96,4.12-6.83c-1.25-5.21.94-8.47,3.09-11.11h0c.42-.52.86-1.01,1.3-1.51.46-.51.89-1,1.28-1.49,1.02-1.3,2.11-2.54,3.17-3.73,2.46-2.78,4.79-5.41,6.11-8.7,1.16-2.87,1.38-5.01.67-6.53-.68-1.49-2.37-2.67-5.14-3.6-2.51-.85-5.15-1.2-7.95-1.57-.91-.12-1.82-.24-2.73-.38-9.24-1.41-19.09-1.56-31.94-.49-2.88.24-5.81.57-8.65.89-6.1.69-12.41,1.4-18.75,1.28-2.56-.04-4.62.87-6.18,2.79-3.86,4.73-7.87,8.1-12.63,10.59-4.01,2.1-6.38,7.49-5.54,9.54.59,1.44.98,2.86,1.35,4.24.27.98.52,1.91.83,2.8,1.28,3.64-1.07,5.29-2.19,6.08-4.99,3.53-10.53,6.23-17.25,2.16-.48-.29-1.63-.35-2.56-.4l-.52-.03c-4.59-.3-5.35-3.4-5.51-6.07-.06-1.05-.11-2.11-.16-3.18-.28-6.28-.54-12.22-3.98-17.05-2.46-3.45-4.35-7.16-6.17-10.76-1.23-2.42-2.5-4.92-3.9-7.24-3.17-5.24-7.33-8.65-13.51-11.05-.69-.27-1.36-.54-2.03-.82-.66-.27-1.32-.54-1.99-.8-8.36-3.33-18.77.57-22.73,8.51-.13.26-.19.46-.17.56,1.38,5.56-2.68,8.67-4.01,9.69-1.35,1.05-2.08,2.24-2.42,3.99-.64,3.29-.18,6.6.31,10.11.34,2.45.69,4.98.67,7.58,0,.03.08.24.2.41,2.16,3.09,3.68,6.45,5.16,9.7.47,1.03.93,2.05,1.42,3.07.94,1.95,1.93,3.12,3.21,3.78,3.98,2.03,4.61,5.72,5.08,8.42.23,1.35.45,2.62.99,3.52,1.03,1.59-.08,3.44-1.36,4.52-1.38,1.14-1.79,2.69-2.36,5.14l-.13.56c-.12.52-.21,1.14-.3,1.79-.36,2.56-.86,6.08-4.42,7.6-4.52,1.94-8.09,5.16-11.86,8.56-1.93,1.74-3.92,3.54-6.06,5.17-4.37,3.32-6.54,7.54-6.45,12.53.02,1.56-.27,3.27-.88,5.07-3.39,10.17-5.33,20.82-5.94,32.56-.17,3.28-.19,5.07,1.4,6.76.81.86,1.38,2.1,1.66,3.69.35,1.96,1.33,3.62,3.19,5.38,3.6,3.44,4.8,7.5,3.58,12.07-.49,1.84-.79,3.74-1.12,5.75-.21,1.28-.42,2.6-.69,3.92l-.06.29c-.53,2.56-.46,3.05.52,3.73,1.56,1.05,1.59,3.17,1.61,4.19.06,5.17,2.52,9.41,7.51,12.96,12.86,9.12,19.06,15.28,27.62,27.45,3,2.87,3.93,6.53,4.75,9.76.3,1.17.58,2.28.94,3.3,1.25,3.56,1.68,7.46,2.08,11.24.12,1.08.23,2.16.37,3.22.19,1.51.62,2.65,1.4,3.7.81,1.12,2.93,4.05.93,7.15-2.87,4.45-2.84,9.37.09,15.95l.57,1.29c1.25,2.86,2.54,5.82,4.29,7.82,3.27,3.76,3.29,7.63,3.31,11.04,0,.41,0,.82.01,1.23.02,1.02.1,2.04.19,3.12.09,1.14.19,2.32.21,3.51.03,2.33.15,4.72.28,7.03.28,5.36.58,10.9-.28,16.52-.25,1.65-.58,3.3-.89,4.9-.58,2.97-1.13,5.77-1.25,8.56-.51,11.19-2.66,22.18-4.74,32.81l-.51,2.61c-.39,2-1,3.85-1.59,5.64-.49,1.48-.95,2.87-1.28,4.3-1.64,7.16-2.25,14.67-2.83,21.93-.63,7.8-1.28,15.87-3.2,23.76-1.83,7.49-2.15,15.03-.97,22.42.76,4.79,1.67,9.43,4.43,13.63,1.07,1.64,2.42,4.13,1.82,6.82-.6,2.74-2.95,4.47-4.66,5.55-4.12,2.58-5.73,6.37-5.05,11.93.24,1.97.71,3.91,1.22,5.97.61,2.49,1.24,5.06,1.46,7.8.02.3.12.67.23,1.06.33,1.26,1.2,4.54-2.75,6.17.27,1.22.3,2.42.33,3.59.05,1.88.11,3.09.84,4.1,1.28,1.76.85,3.64.71,4.26-.42,1.76-.36,3.06.16,3.89.55.88,1.83,1.55,3.78,1.98,6.37,1.42,12.28,1.87,18.08,1.4,3.07-.25,4.47-1.74,4.42-4.68-.03-1.94.73-3.51,2.33-4.8,3.31-2.66,3.67-3.93,2.21-8.01l-.16-.44c-.46-1.27-1.04-2.84-.57-4.82.87-3.62,1.82-7.13,3.95-10.35.69-1.04.98-1.85.84-2.35-.64-2.3-1.14-4.63-1.62-6.88-.86-4.02-1.67-7.82-3.2-11.38-3.02-7.02-3.02-9.72,2.7-15.39,5.12-5.08,7.31-11.47,8.25-15.94,2.12-10.09,3.95-19.97,3.12-29.94-.35-4.24.48-8.2,1.29-12.04.21-1.01.42-2.02.62-3.04.24-1.29.55-2.58.84-3.83.98-4.14,1.91-8.05.5-11.77-1.94-5.1-.51-9.51.96-12.78,1.38-3.11,1.95-5.81,1.78-8.5-.26-3.92.45-7.8,2.19-11.84,5-11.64,8.09-23.44,11.6-37.65.13-.53.25-1.06.37-1.59.63-2.77,1.35-5.9,3.4-9.06l2.11-3.24Zm-74.76,221.56h0Zm121.04-14.92s0,0,0,.01c0,0,0,0,0-.01Zm-1.19-1.9s.02,0,.03,0c0,0-.02,0-.03,0Zm-115.66-285.55s.06.06.1.09c-.03-.03-.06-.06-.1-.09Zm-39.43-40.34s.03.02.05.03c-.02-.01-.03-.02-.05-.03Zm29.82-126.7c.03.06.06.11.1.17-.03-.06-.07-.11-.1-.17Z"/><path class="cls-2" d="m327.11,779.74c-4.42.43-7.82-.29-11.19-.84-3.05-.5-6.01-1.74-7.53-4.87-.64-1.32-1.74-1.84-3.15-2.14-4.46-.95-6.62-3.42-7.11-7.92-.4-3.69,1.61-7.35,4.99-9.06,5.46-2.77,6.25-4.42,4.65-10.33-.98-3.63-1.3-7.42-2.83-10.93-.72-1.66-.58-3.52-.15-5.26,1.46-5.91,3.37-11.72,4.84-17.6,1.94-7.8,5.97-15.11,5.77-23.47-.04-1.49.43-3.16,1.16-4.46,3.52-6.32,4.96-13.23,6.09-20.25.09-.55.17-1.11.38-1.62,2.53-6.06,2.8-12.48,2.83-18.9,0-2.56.5-4.57,3.01-5.72,1.39-.64,2.1-2,1.65-3.31-1.67-4.84.81-8.6,2.94-12.48,1.6-2.93,1.93-6.4.37-8.95-2.93-4.75-1.88-9.4-.24-13.72,1.99-5.26,2.65-10.46,2.35-15.95-.46-8.36.29-16.86,2.4-24.73,1.82-6.82,1.44-13.87,3.75-20.47.42-1.2-.08-1.9-1.06-2.44-2.15-1.17-2.19-3.15-1.31-4.9,2.44-4.82,2.82-9.94,2.96-15.19.07-2.41.79-4.8,1.3-7.19.27-1.3,0-1.92-1.4-2.43-5.66-2.03-10.85-4.89-15.11-9.24-2.65-2.71-4.54-5.75-4.31-9.72.13-2.28-.38-4.18-1.85-6.13-2.29-3.03-3.14-6.61-3.59-10.51-1.9-16.55,1.64-32.6,3.83-48.79.95-7.02,1.6-14.09,2.28-21.14.67-6.9,4.66-11.28,10.57-14.22,4.77-2.37,9.56-4.81,14.81-5.86,2.4-.48,3.61-1.65,3.67-3.88.06-2.26-.83-4.03-3.31-4.73-6.03-1.71-9.47-6.02-11.55-11.68-.62-1.7-.9-3.41-.86-5.21.15-6.31-.71-12.79.86-18.89,1.43-5.56,1.88-11.27,4.76-16.71,2.91-5.49,6.18-10.47,10.42-14.79,3.16-3.22,7.35-5.4,11.64-6.66,4.01-1.17,7.8.91,11.36,2.78,1.28.67,2.5,1.5,3.99,1.56,2.48.11,4.38,1.34,6.17,2.94,2.74,2.45,5.6,4.74,9.44,5.24,1.5.2,2.06,1.23,2.13,2.55.1,2.08,1.12,3.52,2.82,4.62,1.42.92,2.3,2.17,2.95,3.84.78,2.01,1.68,4.08,3.41,5.63,2.76,2.48,3.1,4.79.8,7.84-1.83,2.44-2.08,5.03-1.92,7.86.07,1.17.32,2.3,1.36,2.88,3.38,1.88,4.08,5.32,5.07,8.57.83,2.73,2.42,5.1,1.96,8.41-.34,2.38,2.65,2.73,4.84,2.78,5.52.13,11.36.71,15.37,4.41,5.07,4.69,11.02,7.5,17.12,9.82,6.25,2.37,9.02,7.16,11.38,12.58,1.69,3.89,3.38,7.72,6.49,10.74.39.38.8.83.99,1.33,2.97,7.95,7.71,15.12,10.24,23.28,1.02,3.27,2.33,6.47,3.74,9.6,2.42,5.38,1.55,12.53-2.68,16.62-1.98,1.91-3.1,4.06-3.52,6.57-1.33,8-12.67,15.09-21.13,10.34-1.22-.69-2.72-.91-4.11-1.27-1.15-.3-2.5-.98-3.38.24-.8,1.1-.13,2.35.36,3.48,1.01,2.36,1.64,4.81,2.16,7.32.84,3.99,2.34,7.59,6.3,9.67,1.93,1.02,2.76,3.06,3.67,5,3.2,6.87,4.5,14.37,7.15,21.43,1,2.67,2.07,5.14,4.8,6.47,1.16.57,1.78,1.63,2.26,2.78,1.61,3.92,2.06,8.11,3.02,12.19,1.77,7.55.3,15.2,1.17,22.76.46,3.94-.78,5.93-4.3,7.22-2.02.74-3.2-1.1-4.6-2-2.99-1.92-5.18-1.09-5.85,2.42-.02.11,0,.24-.05.33-3.58,6.44-.7,13.42-1.65,20.1-.48,3.39-.27,6.86-1.72,10.09-.53,1.17-.3,2.37,0,3.59.34,1.41.7,3.04.02,4.26-1.74,3.1-.48,5.7.71,8.5,2.19,5.16,2.81,10.27-1.53,14.81-1.55,1.63-1.22,3.56-.46,5.3,1.05,2.42,2.11,4.94,3.71,7,1.36,1.76,1.78,3.64,2.48,5.61,2.13,5.96.21,12.24,1.84,18.18.26.95.06,2.1.51,2.93,4.25,7.98,3.46,16.75,4.27,25.31,1.4,14.77,2.55,29.62,6.87,43.93,1.01,3.36,2.85,6.49,4.51,9.62,1.55,2.92,1.77,5.73-.13,8.47-2.07,2.99-2.26,6.13-1.27,9.52,1.02,3.48.93,6.81-1.78,9.64-.3.31-.69.77-.65,1.12.44,4.08-2.96,7.28-2.42,11.47.31,2.38-1.52,4.22-3.85,4.16-5.05-.12-10.23.21-14.94-2.34-1.01-.55-2.1-1.15-2.31-2.26-.71-3.67-3.54-5.16-6.44-6.63-2.35-1.19-3.8-2.33-1.64-5.28,1.86-2.53.56-5.55-2.28-6.88-1.75-.82-2.99-1.88-2.57-4.09.14-.74.18-1.63-.1-2.29-3.27-7.65-2.37-15.64-1.95-23.58.34-6.32.53-12.65-.16-18.95-.21-1.95-.19-3.72.64-5.5,1.41-3.07.78-5.79-.72-8.83-1.68-3.42-2.99-7.08-4.32-10.68-3.31-8.97-4.29-18.48-5.84-27.86-.14-.87-.21-1.79-.56-2.58-3.69-8.31-5.98-16.96-7.09-26-.56-4.51-1.98-8.87-4.47-12.79-1.08-1.71-1.87-3.61-1.93-5.62-.21-7.35-2.79-14.08-5.27-20.84-2.59-7.08-4.61-14.36-6.16-21.71-1.61-7.6-4.74-8.97-10.89-4.07-.77.62-1.59,1.32-2.05,2.16-5.22,9.51-10.9,18.79-14.52,29.1-.26.73-.56,1.53-.5,2.26.48,5.77-2.75,10.01-5.66,14.46-3.63,5.56-5.55,11.77-6.22,18.37-.06.55.02,1.25-.28,1.62-4.06,4.91-3.29,11.24-5.02,16.82-.53,1.71-1,3.49-2.57,4.54-3.01,2.01-3.73,4.85-3.06,8.15.73,3.56.15,6.62-1.94,9.75-2.1,3.13-.51,7.17-1.56,10.69-1.89,6.34-.95,13-2.03,19.45-.9,5.4-2.13,10.65-4.92,15.44-2.1,3.61-1.47,7.61-.96,11.39.78,5.86-1.03,11.4-1.58,17.07-.57,5.81-4.65,10.66-5.3,16.62-.27,2.51-2.49,4.41-2.82,7.23-.18,1.56-2.68,2.45-4.69,2.5-1.44.03-2.88,0-3.38,0Z"/><path class="cls-1" d="m475.3,793.38c-.05,0-.1,0-.16,0-.66-.02-1.33-.02-2-.03-4.65-.05-9.45-.11-14.07-2.61-1.17-.63-3.13-1.7-3.58-3.98-.47-2.41-2.25-3.43-5.12-4.88-1.19-.6-3.41-1.73-3.95-4.01-.37-1.54.1-3.17,1.43-4.98.34-.47.45-.93.33-1.4-.17-.68-.8-1.33-1.66-1.74-3.21-1.5-4.54-3.8-3.96-6.82.09-.5.06-.81.04-.88-3.16-7.39-2.71-14.95-2.27-22.27.05-.8.1-1.6.14-2.4.37-6.94.49-12.74-.15-18.54-.22-1.98-.29-4.35.85-6.82.92-1.99.73-3.8-.69-6.68-1.61-3.28-2.89-6.75-4.12-10.11l-.3-.8c-2.74-7.45-3.94-15.27-5.1-22.82-.28-1.83-.56-3.67-.86-5.49-.03-.2-.06-.41-.09-.61-.08-.52-.15-1.06-.29-1.36-3.67-8.27-6.12-17.26-7.29-26.71-.54-4.37-1.92-8.33-4.1-11.76-1.47-2.32-2.25-4.63-2.32-6.89-.19-6.62-2.42-12.71-4.79-19.15l-.33-.9c-2.5-6.83-4.61-14.25-6.26-22.05-.9-4.24-2.01-4.84-2.22-4.92-.21-.07-1.41-.32-4.67,2.28-.37.29-1.14.91-1.42,1.41-.97,1.77-1.95,3.53-2.94,5.29-4.2,7.5-8.54,15.25-11.42,23.44l-.05.15c-.12.33-.31.89-.31,1.09.51,6.1-2.56,10.74-5.28,14.83l-.78,1.19c-3.21,4.91-5.17,10.72-5.83,17.25,0,.09-.01.19-.01.29-.02.65-.06,1.74-.83,2.67-2.23,2.7-2.74,6.1-3.28,9.71-.31,2.05-.62,4.18-1.27,6.26l-.09.29c-.56,1.83-1.26,4.1-3.48,5.59-1.93,1.29-2.53,2.96-2,5.57.87,4.28.14,7.98-2.32,11.64-.79,1.18-.77,2.81-.74,4.69.02,1.63.05,3.49-.5,5.32-1.01,3.4-1.14,6.95-1.28,10.7-.1,2.75-.2,5.6-.68,8.44-.89,5.33-2.14,10.99-5.22,16.28-1.59,2.74-1.16,5.96-.7,9.38l.06.42c.58,4.33-.12,8.39-.79,12.31-.31,1.84-.61,3.58-.78,5.33-.32,3.3-1.59,6.21-2.82,9.02-1.13,2.59-2.2,5.03-2.48,7.63-.19,1.72-.96,3.11-1.64,4.34-.58,1.04-1.07,1.95-1.18,2.9-.36,3.13-3.94,4.64-7.11,4.72-1.13.03-2.27.02-2.97.01h-.36c-4.22.39-7.62-.19-10.62-.7l-1.08-.18c-4.57-.75-7.72-2.85-9.38-6.24-.13-.27-.26-.54-1.42-.79-5.5-1.16-8.47-4.47-9.08-10.1-.52-4.73,2.03-9.38,6.34-11.56,4.42-2.24,4.64-2.73,3.37-7.45-.37-1.36-.64-2.72-.91-4.03-.47-2.32-.92-4.52-1.8-6.55-.85-1.95-.94-4.19-.28-6.86.75-3.03,1.62-6.07,2.47-9,.81-2.82,1.66-5.74,2.37-8.6.67-2.68,1.57-5.29,2.43-7.82,1.74-5.06,3.38-9.83,3.26-14.98-.05-1.89.49-3.98,1.47-5.74,3.47-6.24,4.82-13.3,5.8-19.43.11-.66.23-1.42.54-2.18,2.39-5.73,2.61-12.01,2.63-17.95.01-2.77.53-6.17,4.47-7.98.23-.11.32-.24.33-.26-1.9-5.45.48-9.72,2.57-13.49l.53-.96c1.25-2.3,1.42-4.82.43-6.44-3.54-5.74-2.21-11.27-.45-15.92,1.77-4.67,2.49-9.55,2.19-14.93-.49-8.8.37-17.62,2.48-25.51.77-2.88,1.12-5.8,1.49-8.89.45-3.72.91-7.56,2.17-11.32-2.85-1.71-3.7-4.92-2.09-8.08,2.25-4.44,2.56-9.22,2.69-14.13.06-2.06.51-4.02.96-5.9.11-.46.22-.93.32-1.39-6.52-2.38-11.69-5.57-15.78-9.75-2.31-2.36-5.34-6.13-5.02-11.61.1-1.78-.29-3.07-1.35-4.47-2.84-3.74-3.65-8.03-4.08-11.74-1.56-13.57.46-26.88,2.42-39.75.48-3.17.98-6.44,1.42-9.66.85-6.28,1.47-12.73,2.07-18.96l.2-2.09c.69-7.16,4.71-12.62,11.95-16.22l.48-.24c4.69-2.34,9.55-4.75,14.95-5.84,1.63-.33,1.64-.77,1.66-1.49.04-1.54-.49-1.98-1.49-2.26-6.27-1.78-10.59-6.1-13.21-13.23-.73-1.99-1.06-3.99-1.01-6.13.04-1.79,0-3.64-.04-5.44-.11-4.6-.21-9.36.98-14.01.4-1.55.71-3.09,1.05-4.73.84-4.1,1.71-8.35,3.92-12.53,3.4-6.41,6.84-11.3,10.84-15.37,3.23-3.29,7.63-5.82,12.72-7.31,4.87-1.42,9.16.83,12.94,2.81l.28.15c.23.12.46.25.7.38.86.47,1.59.87,2.25.9,3.47.16,5.95,1.99,7.72,3.57,2.46,2.2,4.93,4.21,8.1,4.63,2.56.34,4.16,2.17,4.3,4.91.06,1.14.54,1.91,1.68,2.64,1.79,1.16,3.04,2.76,3.92,5.03.69,1.78,1.42,3.48,2.75,4.67,3.79,3.4,4.17,7.17,1.13,11.2-1.37,1.83-1.56,3.8-1.42,6.21.03.55.1.79.14.87,3.9,2.2,5.01,6,5.91,9.05l.28.94c.2.65.45,1.29.72,1.98.79,2,1.68,4.25,1.36,7.15.34.11,1.03.26,2.38.29,6.14.15,12.45.86,17,5.07,5.06,4.67,11.09,7.33,16.31,9.32,7.44,2.82,10.5,8.67,12.78,13.92,1.55,3.56,3.15,7.23,5.94,9.95.54.53,1.21,1.26,1.58,2.24,1.28,3.41,2.94,6.79,4.55,10.05,2.1,4.25,4.27,8.64,5.73,13.36.85,2.75,2.01,5.71,3.63,9.32,2.96,6.59,1.61,14.77-3.22,19.44-1.57,1.51-2.45,3.16-2.79,5.18-.81,4.86-4.72,9.63-9.98,12.15-5.07,2.43-10.48,2.41-14.85-.04-.62-.35-1.5-.55-2.44-.77-.36-.08-.72-.17-1.07-.26-.09-.02-.18-.05-.27-.07.01.02.02.05.03.07l.14.31c1.17,2.71,1.83,5.46,2.31,7.8.89,4.26,2.35,6.57,5.02,7.98,2.55,1.34,3.68,3.79,4.58,5.75l.19.41c1.95,4.19,3.22,8.58,4.44,12.82.84,2.92,1.71,5.93,2.78,8.78.91,2.42,1.7,4.19,3.56,5.1,2.01.98,2.95,2.8,3.48,4.08,1.22,2.96,1.81,6,2.38,8.93.25,1.26.48,2.45.76,3.63,1.1,4.68,1.03,9.32.96,13.8-.05,3.2-.09,6.22.26,9.24.58,5.03-1.3,8.16-5.92,9.86-2.87,1.05-4.93-.69-6.03-1.63-.29-.25-.56-.48-.78-.61-.9-.58-1.41-.64-1.52-.61-.05.04-.31.39-.5,1.25-.01.27-.07.72-.34,1.21-1.89,3.39-1.62,7.17-1.34,11.17.18,2.61.37,5.32-.02,8.07-.13.92-.21,1.86-.29,2.85-.21,2.58-.43,5.24-1.63,7.92-.18.4-.08,1.03.15,1.97.36,1.48.96,3.95-.23,6.07-1.01,1.8-.47,3.26.66,5.9l.17.4c1.12,2.64,4.53,10.66-2.02,17.51-.3.31-.75.79.02,2.58l.15.34c.94,2.17,1.92,4.4,3.24,6.12,1.34,1.73,1.94,3.54,2.47,5.14.13.38.25.77.39,1.15,1.28,3.59,1.26,7.13,1.25,10.56-.01,2.76-.03,5.36.64,7.81.17.64.22,1.25.25,1.74.02.24.04.61.08.73,3.46,6.49,3.8,13.4,4.13,20.09.1,2.01.2,4.09.39,6.1l.3,3.22c1.25,13.37,2.54,27.2,6.47,40.23.78,2.58,2.11,5.05,3.52,7.67.27.5.54,1,.8,1.5,2.12,4.01,2.03,7.73-.28,11.07-1.5,2.16-1.79,4.44-.92,7.39,1.43,4.9.68,8.82-2.3,11.98.05,2.27-.73,4.24-1.42,5.99-.67,1.69-1.25,3.14-1.05,4.63.24,1.84-.29,3.58-1.49,4.92-1.19,1.32-2.91,2.07-4.74,2.07Zm-14.92-7.71c.21.2.79.51,1.08.67,3.53,1.91,7.52,1.96,11.75,2.01.69,0,1.37.02,2.06.03.42,0,.82-.14,1.06-.41.22-.24.3-.56.25-.94-.36-2.77.56-5.08,1.37-7.12.64-1.62,1.2-3.02,1.05-4.41-.17-1.56.92-2.69,1.33-3.12,1.77-1.84,2.12-4,1.19-7.2-1.29-4.41-.76-8.22,1.61-11.64,1.23-1.77,1.22-3.53-.02-5.88-.26-.49-.52-.98-.79-1.47-1.46-2.72-2.98-5.53-3.9-8.6-4.07-13.51-5.39-27.59-6.66-41.21l-.3-3.21c-.2-2.12-.31-4.26-.41-6.32-.32-6.42-.62-12.48-3.58-18.05-.51-.96-.57-1.91-.63-2.68-.02-.29-.04-.61-.08-.77-.85-3.11-.83-6.18-.82-9.15.01-3.13.03-6.09-.96-8.85-.15-.43-.29-.85-.43-1.27-.46-1.39-.86-2.59-1.67-3.65-1.71-2.21-2.81-4.74-3.87-7.19l-.15-.34c-1.74-4-.45-6.57.94-8.03,3-3.14,3.31-6.76,1.04-12.11l-.17-.39c-1.2-2.8-2.69-6.29-.42-10.32.23-.41-.13-1.88-.27-2.44-.37-1.53-.7-3.32.15-5.21.85-1.89,1.02-4.02,1.21-6.27.08-1.02.17-2.08.32-3.15.32-2.22.15-4.55-.02-7.01-.29-4.21-.63-8.96,1.73-13.52.61-3.21,2.22-4.52,3.47-5.05,1.26-.54,3.36-.81,6.19,1,.5.32.93.69,1.31,1.01.32.27.84.72,1.04.77,2.33-.87,3.04-1.65,2.7-4.61-.39-3.34-.34-6.67-.29-9.89.06-4.38.12-8.51-.83-12.59-.3-1.28-.55-2.57-.8-3.82-.55-2.82-1.07-5.49-2.1-7.99-.44-1.08-.78-1.36-1.04-1.49-3.5-1.71-4.86-4.68-6.05-7.83-1.14-3.03-2.04-6.14-2.91-9.15-1.23-4.25-2.38-8.26-4.17-12.1l-.2-.42c-.71-1.54-1.33-2.87-2.37-3.42-5.18-2.73-6.77-7.51-7.58-11.37-.44-2.09-1.02-4.54-2.01-6.85l-.12-.27c-.54-1.22-1.54-3.49.03-5.66,1.79-2.48,4.55-1.64,5.59-1.33.15.05.3.09.45.13.31.08.63.15.94.23,1.18.27,2.53.58,3.77,1.28,2.93,1.65,6.66,1.61,10.24-.11,3.77-1.81,6.67-5.21,7.21-8.46.51-3.09,1.9-5.7,4.25-7.96,3.31-3.2,4.23-9.13,2.14-13.79-1.71-3.8-2.93-6.94-3.84-9.89-1.35-4.35-3.34-8.37-5.44-12.63-1.67-3.38-3.39-6.87-4.75-10.51h0s-.09-.13-.39-.41c-3.49-3.4-5.38-7.72-7.03-11.54-2.46-5.66-4.88-9.31-9.97-11.24-5.68-2.15-12.25-5.07-17.93-10.32-3.34-3.09-8.57-3.62-13.73-3.75-2.14-.05-4.78-.34-6.3-2.12-.82-.96-1.15-2.18-.96-3.51.25-1.76-.31-3.18-1.02-4.97-.3-.75-.6-1.52-.86-2.36l-.29-.99c-.9-3.05-1.55-4.98-3.6-6.12-2.43-1.36-2.59-4.04-2.64-4.92-.17-2.89,0-6.28,2.42-9.5,1.48-1.96,1.39-2.8-.48-4.48-2.15-1.93-3.23-4.41-4.07-6.58-.5-1.28-1.09-2.07-1.98-2.65-2.49-1.61-3.82-3.83-3.96-6.59,0-.09-.01-.15-.02-.21-4.54-.62-7.78-3.23-10.72-5.85-1.75-1.57-3.09-2.24-4.61-2.3-1.82-.08-3.26-.88-4.43-1.52-.2-.11-.41-.22-.61-.33l-.29-.15c-3.23-1.7-6.28-3.3-9.21-2.44-4.27,1.25-7.92,3.33-10.56,6.01-3.65,3.72-6.83,8.23-9.99,14.21-1.88,3.55-2.64,7.26-3.44,11.19-.33,1.63-.68,3.31-1.11,4.97-1.03,3.99-.93,8.2-.83,12.65.04,1.85.09,3.77.04,5.67-.03,1.5.2,2.9.71,4.29,2.05,5.59,5.19,8.81,9.88,10.14,3.35.95,5.22,3.57,5.12,7.2-.06,2.35-1.09,5.35-5.67,6.27-4.75.95-9.1,3.12-13.71,5.41l-.48.24c-5.75,2.86-8.67,6.74-9.2,12.22l-.2,2.08c-.6,6.28-1.23,12.77-2.09,19.15-.44,3.26-.94,6.56-1.43,9.75-1.91,12.54-3.88,25.52-2.4,38.42.49,4.3,1.42,7.08,3.1,9.29,1.78,2.35,2.53,4.82,2.36,7.78-.16,2.75.92,5.09,3.6,7.83,3.61,3.69,8.24,6.51,14.17,8.64,2.5.9,3.54,2.73,3,5.3-.13.61-.27,1.22-.42,1.84-.4,1.72-.78,3.35-.83,4.9-.15,5.29-.52,10.9-3.23,16.25-.57,1.12-.16,1.34.28,1.58,2.18,1.19,3.01,3.23,2.22,5.46-1.19,3.38-1.62,6.94-2.07,10.7-.38,3.13-.77,6.36-1.63,9.58-1.97,7.39-2.77,15.67-2.31,23.95.34,6.09-.48,11.64-2.51,16.98-1.62,4.26-2.23,7.85.03,11.52,1.95,3.16,1.83,7.55-.3,11.46l-.55.99c-2.1,3.78-3.33,6.26-2.22,9.48.87,2.52-.38,5.21-2.97,6.39-1.09.5-1.54,1.09-1.55,3.45-.02,6.44-.28,13.28-3.02,19.85-.09.22-.15.62-.22,1-1.06,6.6-2.51,14.17-6.38,21.12-.54.98-.87,2.2-.84,3.19.15,6.05-1.72,11.48-3.53,16.73-.87,2.54-1.7,4.93-2.31,7.4-.74,2.95-1.59,5.92-2.42,8.78-.83,2.89-1.69,5.87-2.42,8.82-.39,1.56-.38,2.75.01,3.66,1.1,2.51,1.62,5.08,2.12,7.55.26,1.3.51,2.52.84,3.73,1.9,7.05.62,9.89-5.94,13.21-2.46,1.25-3.92,3.88-3.63,6.56.38,3.48,1.77,5.03,5.15,5.75,1.52.32,3.68,1.03,4.88,3.49.93,1.9,2.74,3.01,5.69,3.5l1.1.19c3,.51,5.83.99,9.44.64h.24s.52,0,.52,0c.66,0,1.73.02,2.8,0,1.05-.03,1.96-.36,2.31-.6.27-1.79,1.04-3.19,1.73-4.44.52-.94.96-1.75,1.04-2.47.37-3.35,1.64-6.27,2.87-9.08,1.12-2.57,2.18-5,2.43-7.51.19-1.94.52-3.84.83-5.69.64-3.72,1.24-7.23.76-10.81l-.06-.42c-.53-3.91-1.12-8.34,1.33-12.56,2.68-4.6,3.8-9.73,4.61-14.59.42-2.52.52-5.09.62-7.8.14-3.9.29-7.94,1.49-11.95.33-1.1.31-2.43.29-3.83-.03-2.38-.07-5.07,1.59-7.54,1.71-2.55,2.17-4.9,1.57-7.86-1.18-5.8,1.59-9.04,4.12-10.73.71-.47,1.02-1.41,1.48-2.9l.09-.3c.53-1.73.81-3.57,1.1-5.52.57-3.8,1.21-8.08,4.06-11.76,0-.02,0-.04,0-.06,0-.21.02-.41.04-.61.75-7.34,2.97-13.9,6.62-19.48l.8-1.22c2.59-3.91,4.83-7.29,4.46-11.67-.1-1.22.28-2.3.58-3.16l.05-.14c3.03-8.6,7.47-16.55,11.77-24.23.98-1.75,1.96-3.49,2.92-5.25.67-1.22,1.68-2.12,2.69-2.92,2.41-1.92,6-4.32,9.47-3.07,3.49,1.25,4.77,5.5,5.42,8.59,1.6,7.57,3.65,14.75,6.07,21.37l.33.9c2.4,6.54,4.88,13.3,5.09,20.73.04,1.34.56,2.8,1.54,4.35,2.58,4.06,4.21,8.71,4.84,13.83,1.12,9.09,3.38,17.36,6.9,25.29.42.93.55,1.86.67,2.67.03.17.05.35.08.52.3,1.85.59,3.7.87,5.55,1.12,7.31,2.28,14.87,4.84,21.85l.3.81c1.19,3.24,2.42,6.59,3.92,9.63,1.39,2.84,2.74,6.65.74,10.98-.51,1.11-.63,2.28-.42,4.18.68,6.14.56,12.17.17,19.35-.04.81-.09,1.62-.14,2.43-.42,7.05-.81,13.7,1.89,20.04.56,1.3.45,2.75.26,3.74-.1.53-.14.75,1.17,1.36,2.24,1.05,3.84,2.88,4.39,5.03.49,1.93.08,3.92-1.15,5.6-.29.39-.44.67-.51.83.18.14.54.38,1.26.74,2.84,1.44,6.73,3.42,7.74,8.25Zm-118.84-279.41h0Zm54.01-194.8h0Z"/></svg>